<svg width="18" height="18" viewBox="0 0 18 18"  xmlns="http://www.w3.org/2000/svg">
<g id="Frame">
<path id="Vector" d="M12.0668 8.05234C11.825 8.05234 11.5973 7.98124 11.4266 7.83905C11.2559 7.69684 11.1563 7.49765 11.1563 7.29845C11.1563 6.28806 10.1744 5.47715 8.99329 5.47715C7.79808 5.47715 6.83029 6.28834 6.83029 7.29845C6.83029 7.58315 6.65958 7.82495 6.36077 7.96714C6.06198 8.10935 5.73468 8.10935 5.44998 7.96714C5.16529 7.82493 4.98047 7.58285 4.98047 7.29845C4.98047 5.44865 6.77326 3.96875 8.96478 3.96875C11.1563 3.96875 12.9632 5.47715 12.9632 7.31285C12.9776 7.71064 12.5648 8.05236 12.0668 8.05236V8.05234Z" />
<path id="Vector_2" d="M14.8708 7.31195C14.629 7.31195 14.4013 7.24084 14.2306 7.09864C14.0599 6.94205 13.9603 6.75725 13.9603 6.55804C13.9603 5.06404 13.021 3.69785 11.4844 2.95804C9.94778 2.21823 8.05506 2.21825 6.51817 2.95804C4.98128 3.69783 4.04227 5.06404 4.04227 6.55804C4.04227 6.97084 3.62947 7.31225 3.13146 7.31225C2.63346 7.31225 2.22067 6.97084 2.22067 6.55804C2.22067 4.52314 3.51547 2.64485 5.62147 1.63476C7.71338 0.624351 10.3174 0.624351 12.409 1.63476C14.5006 2.64517 15.7813 4.50905 15.7813 6.54394C15.7816 6.97055 15.3688 7.31193 14.8708 7.31193V7.31195ZM15.1696 10.0156H2.80417C2.32027 10.0156 1.92188 10.485 1.92188 11.0686V15.7359C1.92188 16.305 2.32027 16.7889 2.80417 16.7889H15.1696C15.6535 16.7889 16.0519 16.3194 16.0519 15.7359V11.0686C16.0519 10.485 15.6535 10.0156 15.1696 10.0156ZM4.98128 13.9002C4.82466 14.0425 4.62546 14.1279 4.44066 14.1279C4.01378 14.1279 3.65796 13.7722 3.65796 13.3453C3.65796 12.9184 4.01378 12.5626 4.44066 12.5626C4.86755 12.5626 5.22336 12.9183 5.22336 13.3453C5.20897 13.5444 5.12347 13.7436 4.98128 13.9002ZM7.34346 13.9002C7.18688 14.0425 6.98768 14.1279 6.80286 14.1279C6.36186 14.1279 6.02016 13.7722 6.02016 13.3453C6.02016 12.9184 6.37596 12.5626 6.80286 12.5626C7.24386 12.5626 7.58556 12.9183 7.58556 13.3453C7.57117 13.5444 7.48567 13.7436 7.34346 13.9002ZM9.74827 13.9002C9.59167 14.0425 9.39247 14.1279 9.20767 14.1279C8.76667 14.1279 8.42497 13.7722 8.42497 13.3453C8.42497 12.9184 8.78075 12.5626 9.20767 12.5626C9.64867 12.5626 9.99037 12.9183 9.99037 13.3453C9.99008 13.5444 9.90458 13.7436 9.74827 13.9002ZM7.95516 8.43605C7.95516 8.99105 8.41058 9.43203 8.97967 9.43203C9.54876 9.43203 10.0042 8.99105 10.0042 8.43605C10.0042 7.88104 9.54878 7.44004 8.97967 7.44004C8.41058 7.45414 7.95516 7.89544 7.95516 8.43605Z" />
</g>
</svg>
