<svg width="16" height="16" viewBox="0 0 16 16"  xmlns="http://www.w3.org/2000/svg">
<g id="Frame" clip-path="url(#clip0_107_439)">
<path id="Vector" d="M14.944 4C15.2092 4 15.4636 4.10536 15.6511 4.29289C15.8386 4.48043 15.944 4.73478 15.944 5V11C15.944 11.2652 15.8386 11.5196 15.6511 11.7071C15.4636 11.8946 15.2092 12 14.944 12H12.743L12.744 10H3.144L3.143 12H1C0.734784 12 0.48043 11.8946 0.292893 11.7071C0.105357 11.5196 0 11.2652 0 11V5C0 4.73478 0.105357 4.48043 0.292893 4.29289C0.48043 4.10536 0.734784 4 1 4H14.944ZM11.944 6C11.6788 6 11.4244 6.10536 11.2369 6.29289C11.0494 6.48043 10.944 6.73478 10.944 7C10.944 7.26522 11.0494 7.51957 11.2369 7.70711C11.4244 7.89464 11.6788 8 11.944 8C12.2092 8 12.4636 7.89464 12.6511 7.70711C12.8386 7.51957 12.944 7.26522 12.944 7C12.944 6.73478 12.8386 6.48043 12.6511 6.29289C12.4636 6.10536 12.2092 6 11.944 6Z" />
<path id="Vector_2" d="M3.64531 9H12.2453C12.3779 9 12.5051 9.05268 12.5989 9.14645C12.6926 9.24021 12.7453 9.36739 12.7453 9.5V15C12.7453 15.2652 12.64 15.5196 12.4524 15.7071C12.2649 15.8946 12.0105 16 11.7453 16H4.14531C3.8801 16 3.62574 15.8946 3.43821 15.7071C3.25067 15.5196 3.14531 15.2652 3.14531 15V9.5C3.14531 9.36739 3.19799 9.24021 3.29176 9.14645C3.38553 9.05268 3.5127 9 3.64531 9ZM4.64531 12H10.6453C10.7779 12 10.9051 12.0527 10.9989 12.1464C11.0926 12.2402 11.1453 12.3674 11.1453 12.5C11.1453 12.6326 11.0926 12.7598 10.9989 12.8536C10.9051 12.9473 10.7779 13 10.6453 13H4.64531C4.5127 13 4.38553 12.9473 4.29176 12.8536C4.19799 12.7598 4.14531 12.6326 4.14531 12.5C4.14531 12.3674 4.19799 12.2402 4.29176 12.1464C4.38553 12.0527 4.5127 12 4.64531 12ZM4.64531 14H7.64531C7.77792 14 7.9051 14.0527 7.99887 14.1464C8.09263 14.2402 8.14531 14.3674 8.14531 14.5C8.14531 14.6326 8.09263 14.7598 7.99887 14.8536C7.9051 14.9473 7.77792 15 7.64531 15H4.64531C4.5127 15 4.38553 14.9473 4.29176 14.8536C4.19799 14.7598 4.14531 14.6326 4.14531 14.5C4.14531 14.3674 4.19799 14.2402 4.29176 14.1464C4.38553 14.0527 4.5127 14 4.64531 14ZM12.9453 0C13.2105 0 13.4649 0.105357 13.6524 0.292893C13.84 0.48043 13.9453 0.734784 13.9453 1V3H1.94531V1C1.94534 0.755067 2.03527 0.518663 2.19803 0.335628C2.36079 0.152593 2.58506 0.0356572 2.82831 0.007L2.94531 0H12.9453Z" />
</g>
<defs>
<clipPath id="clip0_107_439">
<rect width="16" height="16" />
</clipPath>
</defs>
</svg>
