<svg width="20" height="20" viewBox="0 0 20 20"  xmlns="http://www.w3.org/2000/svg">
<g id="Frame" opacity="0.4">
<path id="Vector" d="M9.99571 2C5.57553 2 1.99219 5.58325 1.99219 10.0035C1.99219 14.4238 5.57553 18.007 9.99571 18.007C14.4161 18.007 17.9993 14.4239 17.9993 10.0035C17.9993 5.58334 14.4161 2 9.99571 2ZM9.97897 16.9824C6.10877 16.9824 2.97122 13.8451 2.97122 9.97482C2.97122 6.10462 6.10868 2.96708 9.97897 2.96708C13.8493 2.96708 16.9867 6.10454 16.9867 9.97482C16.9867 13.8451 13.8493 16.9824 9.97897 16.9824Z" />
<path id="Vector_2" d="M4.08984 9.98928C4.08984 11.5549 4.7118 13.0565 5.81889 14.1636C6.92598 15.2707 8.42752 15.8926 9.99318 15.8926C11.5588 15.8926 13.0604 15.2707 14.1675 14.1636C15.2746 13.0565 15.8965 11.5549 15.8965 9.98928C15.8965 8.42361 15.2746 6.92208 14.1675 5.81499C13.0604 4.70789 11.5588 4.08594 9.99318 4.08594C8.42752 4.08594 6.92598 4.70789 5.81889 5.81499C4.7118 6.92208 4.08984 8.42361 4.08984 9.98928Z" />
</g>
</svg>
