<svg width="18" height="18" viewBox="0 0 18 18"  xmlns="http://www.w3.org/2000/svg">
<g id="Frame">
<path id="Vector" d="M4.11467 17.615H13.7575C15.1718 17.615 16.329 16.4578 16.329 15.0435V2.82924C16.329 1.41496 15.1718 0.257813 13.7575 0.257812H6.65395C5.97895 0.257813 5.3361 0.514955 4.82181 0.997098L2.28252 3.53638C2.04354 3.77718 1.85505 4.06328 1.7281 4.37789C1.60115 4.69251 1.5383 5.0293 1.54324 5.36853V15.0435C1.54324 16.4578 2.70038 17.615 4.11467 17.615ZM15.0432 2.82924V15.0435C15.0432 15.7507 14.4647 16.3292 13.7575 16.3292H4.11467C3.40752 16.3292 2.82895 15.7507 2.82895 15.0435V5.7221H4.75752C6.17181 5.7221 7.32895 4.56496 7.32895 3.15067V1.54353H13.7575C14.4647 1.54353 15.0432 2.1221 15.0432 2.82924ZM5.75395 1.92924C5.85038 1.83281 5.94681 1.76853 6.04324 1.70424V3.15067C6.04324 3.85781 5.46467 4.43638 4.75752 4.43638H3.24681L5.75395 1.92924Z" />
<path id="Vector_2" d="M5.39844 7.84375H12.4699C12.6403 7.84378 12.8038 7.91152 12.9244 8.03208C13.0449 8.15263 13.1126 8.31613 13.1126 8.48661C13.1126 8.65709 13.0449 8.82058 12.9244 8.94114C12.8038 9.06169 12.6403 9.12944 12.4699 9.12946H5.39844V7.84375Z" />
<path id="Vector_3" d="M4.84358 7.99955L7.67215 5.93726C7.80996 5.83712 7.98187 5.79578 8.15013 5.82229C8.3184 5.84881 8.46926 5.94103 8.56958 6.07869C8.61956 6.147 8.65556 6.22452 8.67551 6.30678C8.69546 6.38905 8.69896 6.47444 8.68582 6.55807C8.67268 6.64169 8.64315 6.72189 8.59893 6.79407C8.55472 6.86626 8.49668 6.92899 8.42815 6.97869L5.59958 9.03969C5.46178 9.13982 5.28987 9.18117 5.12161 9.15465C4.95334 9.12814 4.80248 9.03592 4.70215 8.89826C4.65217 8.82994 4.61618 8.75243 4.59623 8.67016C4.57628 8.5879 4.57278 8.5025 4.58592 8.41888C4.59906 8.33526 4.62859 8.25506 4.6728 8.18287C4.71702 8.11069 4.77506 8.04795 4.84358 7.99826V7.99955Z" />
<path id="Vector_4" d="M12.3431 11.8287H5.27166C5.10118 11.8287 4.93769 11.7609 4.81716 11.6404C4.69662 11.5198 4.62891 11.3563 4.62891 11.1858C4.62891 11.0153 4.69662 10.8519 4.81716 10.7313C4.93769 10.6107 5.10118 10.543 5.27166 10.543H12.3431V11.8287Z" />
<path id="Vector_5" d="M12.9008 11.6708L10.0722 13.733C9.93444 13.8332 9.76253 13.8745 9.59426 13.848C9.426 13.8215 9.27514 13.7293 9.17481 13.5916C9.12483 13.5233 9.08883 13.4458 9.06888 13.3635C9.04894 13.2813 9.04543 13.1959 9.05857 13.1122C9.07171 13.0286 9.10124 12.9484 9.14546 12.8762C9.18968 12.8041 9.24771 12.7413 9.31624 12.6916L12.1448 10.6306C12.2826 10.5305 12.4545 10.4891 12.6228 10.5157C12.7911 10.5422 12.9419 10.6344 13.0422 10.772C13.0922 10.8404 13.1282 10.9179 13.1482 11.0001C13.1681 11.0824 13.1716 11.1678 13.1585 11.2514C13.1453 11.335 13.1158 11.4153 13.0716 11.4874C13.0274 11.5596 12.9693 11.6224 12.9008 11.672V11.6708Z" />
</g>
</svg>
