<svg width="18" height="18" viewBox="0 0 18 18"  xmlns="http://www.w3.org/2000/svg">
<g id="Frame">
<path id="Vector" d="M9 6.75C7.125 6.75 5.625 8.25 5.625 10.125C5.625 12 7.125 13.5 9 13.5C10.875 13.5 12.375 12 12.375 10.125C12.375 8.25 10.875 6.75 9 6.75ZM10.5375 9.4125L8.2875 11.6625C8.175 11.775 8.025 11.8125 7.875 11.8125C7.725 11.8125 7.575 11.775 7.4625 11.6625C7.2375 11.4375 7.2375 11.1 7.4625 10.875L9.7125 8.625C9.9375 8.4 10.275 8.4 10.5 8.625C10.725 8.8125 10.725 9.1875 10.5375 9.4125Z" />
<path id="Vector_2" d="M15 1.5H3C2.175 1.5 1.5 2.175 1.5 3V15C1.5 15.825 2.175 16.5 3 16.5H15C15.825 16.5 16.5 15.825 16.5 15V3C16.5 2.175 15.825 1.5 15 1.5ZM3.9375 4.5C3.6375 4.5 3.375 4.2375 3.375 3.9375C3.375 3.6375 3.6375 3.375 3.9375 3.375C4.2375 3.375 4.5 3.6375 4.5 3.9375C4.5 4.2375 4.2375 4.5 3.9375 4.5ZM9 14.625C6.525 14.625 4.5 12.6 4.5 10.125C4.5 7.65 6.525 5.625 9 5.625C11.475 5.625 13.5 7.65 13.5 10.125C13.5 12.6 11.475 14.625 9 14.625ZM14.0625 4.5H6.1875C5.8875 4.5 5.625 4.2375 5.625 3.9375C5.625 3.6375 5.8875 3.375 6.1875 3.375H14.0625C14.3625 3.375 14.625 3.6375 14.625 3.9375C14.625 4.2375 14.3625 4.5 14.0625 4.5Z" />
</g>
</svg>
