<svg width="18" height="18" viewBox="0 0 18 18"  xmlns="http://www.w3.org/2000/svg">
<g id="Frame">
<path id="Vector" d="M15.5434 9.65039H13.5764C13.216 9.65039 12.9242 9.94219 12.9242 10.3025V10.9529H8.81973C8.56133 10.9529 8.35039 11.1621 8.35039 11.4223C8.35039 12.0023 8.58242 12.5279 8.95684 12.9146H7.88809L4.40234 10.6242C3.88555 10.2832 3.22813 10.2551 2.6832 10.5486C2.14004 10.8422 1.80078 11.4082 1.80078 12.027C1.80078 12.6 2.08906 13.1273 2.5707 13.4385L7.02852 16.1895H12.9242C12.9277 16.5463 13.2178 16.8363 13.5764 16.8363H15.5434C15.9037 16.8363 16.1955 16.5445 16.1955 16.1842V10.3025C16.1955 9.94219 15.9037 9.65039 15.5434 9.65039Z" />
<path id="Vector_2" d="M3.47988 9.36635C4.0002 9.36635 4.50645 9.51752 4.94238 9.8058L6.825 11.0433C7.06055 11.198 7.3752 11.1013 7.48945 10.8429C7.71445 10.3314 8.22598 9.9728 8.81836 9.9728H11.8436C12.0633 9.9728 12.2742 9.86733 12.392 9.68276C13.0969 8.57006 13.4221 7.19369 13.1689 5.73119C12.7559 3.33881 10.752 1.45971 8.34199 1.18373C4.97402 0.800529 2.12109 3.42494 2.12109 6.71381C2.12109 7.57162 2.30391 8.38901 2.66426 9.10795C2.77324 9.32416 3.26367 9.36635 3.47988 9.36635ZM5.24297 6.18998L5.59277 5.79975C5.73691 5.63803 5.98652 5.62397 6.14824 5.76987L7.31191 6.81401L9.23145 4.60444C9.37383 4.44096 9.62168 4.42338 9.78516 4.56576L10.1807 4.91029C10.3441 5.05268 10.3617 5.30053 10.2193 5.46401L7.68809 8.37319C7.54395 8.53842 7.29258 8.55424 7.1291 8.40834L5.27285 6.74545C5.11113 6.60131 5.09707 6.3517 5.24297 6.18998Z" />
</g>
</svg>
