<svg width="16" height="16" viewBox="0 0 16 16"  xmlns="http://www.w3.org/2000/svg">
<g id="Frame" clip-path="url(#clip0_107_513)">
<path id="Vector" d="M15.1407 4.98316C14.7503 4.06022 14.1916 3.23147 13.4801 2.51992C12.7685 1.80837 11.9398 1.24967 11.0168 0.859297C10.061 0.455 9.04597 0.25 8 0.25C6.95403 0.25 5.93902 0.455 4.98316 0.859297C4.06022 1.24967 3.23147 1.80837 2.51992 2.51992C1.80837 3.23147 1.24967 4.06022 0.859297 4.98316C0.455 5.93902 0.25 6.95403 0.25 8C0.25 9.04595 0.455 10.061 0.859297 11.0168C1.24967 11.9398 1.80837 12.7685 2.51992 13.4801C3.23147 14.1916 4.06022 14.7503 4.98316 15.1407C5.93902 15.545 6.95403 15.75 8 15.75C9.04597 15.75 10.061 15.545 11.0168 15.1407C11.9398 14.7503 12.7685 14.1916 13.4801 13.4801C14.1916 12.7685 14.7503 11.9398 15.1407 11.0168C15.545 10.061 15.75 9.04595 15.75 8C15.75 6.95403 15.545 5.93902 15.1407 4.98316ZM13.9895 10.5299C13.6621 11.3038 13.1933 11.999 12.5962 12.5962C11.999 13.1933 11.3038 13.6621 10.5299 13.9895C9.72895 14.3282 8.87777 14.5 8 14.5C7.12223 14.5 6.27105 14.3282 5.47009 13.9895C4.69616 13.6621 4.00095 13.1933 3.40381 12.5962C2.80666 11.999 2.33789 11.3038 2.01053 10.5299C1.6718 9.72897 1.5 8.87778 1.5 8C1.5 7.12223 1.67177 6.27105 2.01055 5.47009C2.33789 4.69616 2.80666 4.00095 3.40381 3.40381C4.00095 2.80666 4.69616 2.33789 5.47009 2.01053C6.27105 1.6718 7.12223 1.5 8 1.5C8.87777 1.5 9.72895 1.67177 10.5299 2.01055C11.3038 2.33789 11.999 2.80666 12.5962 3.40381C13.1933 4.00095 13.6621 4.69616 13.9895 5.47009C14.3282 6.27105 14.5 7.12223 14.5 8C14.5 8.87778 14.3282 9.72895 13.9895 10.5299Z" />
<path id="Vector_2" d="M9.24612 5.72067H5.82378L6.19816 5.34629C6.44222 5.10221 6.44222 4.70649 6.19816 4.46242C5.95409 4.21834 5.55834 4.21834 5.31425 4.46242L3.98088 5.79579C3.83452 5.94217 3.75391 6.13676 3.75391 6.34376C3.75391 6.55078 3.83453 6.74539 3.98088 6.89173L5.31427 8.2251C5.4363 8.34714 5.59625 8.40817 5.7562 8.40817C5.91616 8.40817 6.07611 8.34715 6.19814 8.2251C6.44222 7.98103 6.44222 7.58529 6.19814 7.34121L5.82759 6.97067H9.24612C10.2111 6.97067 10.9961 7.75571 10.9961 8.72067C10.9961 9.68562 10.2111 10.4707 9.24612 10.4707H5.12113C4.77595 10.4707 4.49613 10.7505 4.49613 11.0957C4.49613 11.4409 4.77595 11.7207 5.12113 11.7207H9.24612C10.9003 11.7207 12.2461 10.3749 12.2461 8.72067C12.2461 7.06645 10.9003 5.72067 9.24612 5.72067Z" />
</g>
<defs>
<clipPath id="clip0_107_513">
<rect width="16" height="16" />
</clipPath>
</defs>
</svg>
