<svg width="16" height="16" viewBox="0 0 16 16"  xmlns="http://www.w3.org/2000/svg">
<g id="Frame">
<path id="Vector" d="M13.2304 0.998047H2.76491C1.78469 0.998047 0.996094 1.78664 0.996094 2.76686V9.34096H14.9992V2.76686C14.9992 1.78664 14.2106 0.998047 13.2304 0.998047ZM12.6113 6.35608H10.5845C10.3782 6.35608 10.1939 6.2529 10.0908 6.07602L9.89913 5.76648L8.80836 7.56477C8.70518 7.74166 8.51356 7.84484 8.31457 7.84484C8.29246 7.84484 8.27035 7.84484 8.24824 7.83747C8.01977 7.80799 7.83551 7.65322 7.76181 7.43948L6.97322 5.01473L6.67104 5.99495C6.59734 6.23816 6.36887 6.40767 6.11829 6.40767H3.384C3.05971 6.40767 2.80176 6.14972 2.80176 5.82544C2.80176 5.50116 3.05971 5.2432 3.384 5.2432H5.69083L6.41309 2.91426C6.48679 2.67105 6.71526 2.50891 6.96585 2.50154C7.21643 2.50154 7.4449 2.66368 7.5186 2.90689L8.46934 5.86966L9.39797 4.34406C9.50115 4.16718 9.69277 4.06399 9.89176 4.06399C10.0981 4.06399 10.2824 4.16718 10.3856 4.34406L10.9015 5.19161H12.6039C12.9282 5.19161 13.1862 5.44957 13.1862 5.77385C13.1862 6.09813 12.9356 6.35608 12.6113 6.35608ZM0.996094 13.2324C0.996094 14.2126 1.78469 15.0012 2.76491 15.0012H13.2304C14.2106 15.0012 14.9992 14.2126 14.9992 13.2324V10.5054H0.996094V13.2324ZM12.1249 12.1711C12.4492 12.1711 12.7071 12.429 12.7071 12.7533C12.7071 13.0776 12.4492 13.3355 12.1249 13.3355C11.8006 13.3355 11.5427 13.0776 11.5427 12.7533C11.5427 12.4364 11.8006 12.1711 12.1249 12.1711ZM7.99766 12.1711H9.92861C10.2529 12.1711 10.5108 12.429 10.5108 12.7533C10.5108 13.0776 10.2529 13.3355 9.92861 13.3355H7.99766C7.67337 13.3355 7.41542 13.0776 7.41542 12.7533C7.41542 12.4364 7.67337 12.1711 7.99766 12.1711ZM3.87042 12.1711H5.80138C6.12566 12.1711 6.38361 12.429 6.38361 12.7533C6.38361 13.0776 6.12566 13.3355 5.80138 13.3355H3.87042C3.54614 13.3355 3.28818 13.0776 3.28818 12.7533C3.28818 12.4364 3.54614 12.1711 3.87042 12.1711Z"/>
</g>
</svg>
