<svg width="20" height="20" viewBox="0 0 20 20"  xmlns="http://www.w3.org/2000/svg">
<path id="Vector" d="M17.0077 14.6469C17.6576 14.6469 18.0057 14.9378 18.0568 15.5183L18.0629 15.6705C18.0629 16.3521 17.7112 16.6941 17.0077 16.6941H3.29549C2.64554 16.6941 2.29744 16.4032 2.24632 15.8214L2.24023 15.6717C2.24023 14.9901 2.59198 14.6481 3.29549 14.6481H17.0077V14.6469ZM17.0077 11.5347C17.6576 11.5347 18.0057 11.8268 18.0568 12.4074L18.0629 12.5595C18.0629 13.2411 17.7112 13.5819 17.0077 13.5819H3.29549C2.64554 13.5819 2.29744 13.2922 2.24632 12.7104L2.24023 12.5595C2.24023 11.8767 2.59198 11.5347 3.29549 11.5347H17.0077ZM17.0077 3.30566C17.5907 3.30566 18.0629 3.76452 18.0629 4.32927V9.44852C18.0609 9.58502 18.0319 9.71979 17.9778 9.84511C17.9236 9.97043 17.8453 10.0839 17.7473 10.1789C17.6493 10.274 17.5336 10.3488 17.4067 10.3991C17.2798 10.4494 17.1442 10.4742 17.0077 10.4721H3.29549C3.15898 10.4742 3.0234 10.4494 2.89649 10.3991C2.76958 10.3488 2.65382 10.274 2.55583 10.1789C2.45784 10.0839 2.37953 9.97043 2.32538 9.84511C2.27123 9.71979 2.2423 9.58502 2.24023 9.44852V4.32805C2.24023 3.76452 2.71248 3.30566 3.29549 3.30566H17.0077ZM8.85533 4.88428H4.59051C4.49109 4.88283 4.39236 4.90098 4.29995 4.9377C4.20755 4.97441 4.12328 5.02896 4.05196 5.09825C3.98064 5.16753 3.92367 5.25019 3.8843 5.34149C3.84493 5.4328 3.82393 5.53096 3.8225 5.63038C3.8225 6.04299 4.16695 6.37648 4.59051 6.37648H8.85533C8.95486 6.37809 9.05372 6.36006 9.14627 6.32342C9.23881 6.28678 9.32322 6.23225 9.39467 6.16295C9.46612 6.09365 9.5232 6.01094 9.56265 5.91956C9.60209 5.82817 9.62313 5.72991 9.62456 5.63038C9.62313 5.53086 9.60209 5.43259 9.56265 5.34121C9.5232 5.24982 9.46612 5.16711 9.39467 5.09781C9.32322 5.02851 9.23881 4.97398 9.14627 4.93734C9.05372 4.9007 8.95486 4.88267 8.85533 4.88428Z" />
</svg>
