<svg width="20" height="20" viewBox="0 0 20 20"  xmlns="http://www.w3.org/2000/svg">
<path id="Vector" d="M17.8167 8.31669L16.5 3.15002C16.5 3.13335 16.5 3.13335 16.4833 3.11669C16.2833 2.55002 15.9833 2.16669 15.1833 2.16669L4.78333 2.20002C4.11667 2.20002 3.71667 2.48335 3.46667 3.15002C3.46667 3.16669 3.45 3.18335 3.45 3.20002L2.16667 8.46669C2.06667 8.56669 2 8.70002 2 8.85002V17.1167C2 17.5167 2.43333 17.9 2.8 17.9H17.4667C17.8333 17.9 18 17.5167 18 17.1167V8.85002C18 8.61669 17.9333 8.43335 17.8167 8.31669ZM14 14.1667H6V12.05H14V14.1667ZM13 8.90002H8.21667C7.86667 8.90002 7 8.88335 7 8.88335H3L4.1 3.38335C4.23333 3.03335 4.36667 2.91669 4.78333 2.91669L15.1833 2.88335C15.65 2.88335 15.7333 3.00002 15.8667 3.35002L17 8.90002H13Z" />
<path id="Vector_2" d="M14.7334 6.39998H5.40007C5.21673 6.39998 5.06673 6.56665 5.06673 6.76665C5.06673 6.96665 5.21673 7.13332 5.40007 7.13332H14.7334C14.9167 7.13332 15.0667 6.96665 15.0667 6.76665C15.0667 6.54998 14.9167 6.39998 14.7334 6.39998ZM15.0667 4.56665H5.06673C4.8834 4.56665 4.7334 4.73332 4.7334 4.93332C4.7334 5.13332 4.8834 5.28332 5.06673 5.28332H15.0667C15.2501 5.28332 15.4001 5.11665 15.4001 4.91665C15.4001 4.73332 15.2501 4.56665 15.0667 4.56665Z" />
</svg>
