<svg width="20" height="20" viewBox="0 0 20 20"  xmlns="http://www.w3.org/2000/svg">
<path id="Vector" d="M12.9573 2.19513C13.6261 2.19513 14.1683 2.73737 14.1683 3.40623V7.44325C14.1683 8.11212 13.6261 8.65433 12.9573 8.65433H10.6249V9.41687H13.9272C14.9547 9.41687 15.7886 10.2441 15.8052 11.2697L15.8054 11.3008V12.6465H17.4425C18.1114 12.6465 18.6535 13.1887 18.6535 13.8576V16.5938C18.6535 17.2626 18.1114 17.8049 17.4425 17.8049H13.0021C12.3333 17.8049 11.7911 17.2626 11.7911 16.5938V13.8576C11.7911 13.1887 12.3333 12.6465 13.0021 12.6465H14.6392V11.3008C14.6392 10.9087 14.3275 10.5909 13.9413 10.5832L13.9272 10.5831H6.11163C5.72367 10.5831 5.40728 10.8962 5.39971 11.2865L5.39958 11.3008L5.39956 12.6465H7.03669C7.70553 12.6465 8.24771 13.1887 8.24771 13.8576V16.5938C8.24771 17.2626 7.70553 17.8049 7.03669 17.8049H2.59628C1.92744 17.8049 1.38525 17.2626 1.38525 16.5938V13.8576C1.38525 13.1887 1.92744 12.6465 2.59628 12.6465H4.23339V11.3008C4.23339 10.2713 5.05702 9.43378 6.08055 9.41712L6.11163 9.41689L9.45874 9.41687V8.65433H6.76758C6.09876 8.65433 5.55655 8.1121 5.55655 7.44325V3.40623C5.55655 2.73735 6.09876 2.19513 6.76758 2.19513H12.9573Z" />
</svg>
