<svg width="19" height="19" viewBox="0 0 19 19"  xmlns="http://www.w3.org/2000/svg">
<path id="Vector" d="M2.10792 14.3859H4.5668C5.102 14.3859 5.53608 13.896 5.53608 13.293V7.34631C5.53608 6.74163 5.102 6.25088 4.5668 6.25088H2.10792C1.57249 6.25088 1.13916 6.74163 1.13916 7.34631V13.293C1.13916 13.896 1.44511 14.3771 2.02722 14.3771L2.10792 14.3859ZM8.27711 14.3854H10.7371C11.2725 14.3854 11.7053 13.9219 11.7053 13.3515V3.21919C11.7053 2.64767 11.2725 2.1839 10.7371 2.1839H8.27711C7.7427 2.1839 7.30733 2.64767 7.30733 3.21919V13.3515C7.30733 13.9219 7.7427 14.3854 8.27711 14.3854ZM14.4212 14.3857H16.8808C17.4163 14.3857 17.8512 13.9026 17.8512 13.3079V10.5687C17.8512 9.97212 17.4163 9.48864 16.8808 9.48864H14.4212C13.8866 9.48864 13.4514 9.97212 13.4514 10.5687V13.3079C13.4514 13.9026 13.8865 14.3857 14.4212 14.3857ZM17.0306 15.2012H1.97646C1.52053 15.2012 1.14744 15.5627 1.14744 16.0074C1.14744 16.4516 1.52053 16.8157 1.97646 16.8157H17.0306C17.4865 16.8157 17.8613 16.4516 17.8613 16.0074C17.8613 15.5627 17.4865 15.2012 17.0306 15.2012Z" />
</svg>
