<svg width="20" height="20" viewBox="0 0 20 20"  xmlns="http://www.w3.org/2000/svg">
<g id="Frame" opacity="0.4">
<g id="Group 427320493">
<path id="Vector" d="M16.979 8.82429L15.7321 3.93126C15.7321 3.91547 15.7321 3.91547 15.7163 3.89969C15.5269 3.36303 15.2428 3 14.4851 3L4.63593 3.03157C4.00457 3.03157 3.62575 3.2999 3.38899 3.93126C3.38899 3.94704 3.37321 3.96282 3.37321 3.97861L2.15784 8.96635C2.06314 9.06105 2 9.18732 2 9.32938V17.1582C2 17.537 2.41038 17.9001 2.75763 17.9001H16.6475C16.9948 17.9001 17.1526 17.537 17.1526 17.1582V9.32938C17.1526 9.1084 17.0895 8.93478 16.979 8.82429ZM13.3645 14.3645H5.78816V12.3599H13.3645V14.3645ZM12.4174 9.37673H7.88743C7.55596 9.37673 6.7352 9.36095 6.7352 9.36095H2.94704L3.98878 4.15223C4.11505 3.82077 4.24133 3.71028 4.63593 3.71028L14.4851 3.67871C14.9271 3.67871 15.006 3.7892 15.1323 4.12066L16.2056 9.37673H12.4174Z" />
<path id="Vector_2" d="M14.059 7.00894H5.21998C5.04636 7.00894 4.9043 7.16678 4.9043 7.35619C4.9043 7.5456 5.04636 7.70344 5.21998 7.70344H14.059C14.2326 7.70344 14.3747 7.5456 14.3747 7.35619C14.3747 7.151 14.2326 7.00894 14.059 7.00894ZM14.3747 5.27271H4.9043C4.73068 5.27271 4.58862 5.43055 4.58862 5.61995C4.58862 5.80936 4.73068 5.95142 4.9043 5.95142H14.3747C14.5483 5.95142 14.6904 5.79358 14.6904 5.60417C14.6904 5.43055 14.5483 5.27271 14.3747 5.27271Z" />
</g>
</g>
</svg>
