<svg width="20" height="20" viewBox="0 0 20 20"  xmlns="http://www.w3.org/2000/svg">
<g id="Frame">
<g id="Vector">
<path d="M3.87478 2.12451H14.375L17.0001 4.74958V16.9999C17.0001 17.232 16.9079 17.4545 16.7438 17.6186C16.5797 17.7827 16.3572 17.8749 16.1251 17.8749H3.87478C3.64271 17.8749 3.42014 17.7827 3.25604 17.6186C3.09195 17.4545 2.99976 17.232 2.99976 16.9999V2.99953C2.99976 2.76746 3.09195 2.5449 3.25604 2.3808C3.42014 2.2167 3.64271 2.12451 3.87478 2.12451ZM13.9375 2.99953V5.18709H16.1251L13.9375 2.99953ZM6.93736 12.1873C6.82132 12.1873 6.71004 12.2334 6.62799 12.3154C6.54594 12.3975 6.49985 12.5087 6.49985 12.6248C6.49985 12.7408 6.54594 12.8521 6.62799 12.9341C6.71004 13.0162 6.82132 13.0623 6.93736 13.0623H14.8126C14.9286 13.0623 15.0399 13.0162 15.1219 12.9341C15.204 12.8521 15.2501 12.7408 15.2501 12.6248C15.2501 12.5087 15.204 12.3975 15.1219 12.3154C15.0399 12.2334 14.9286 12.1873 14.8126 12.1873H6.93736ZM6.93736 14.8123C6.82132 14.8123 6.71004 14.8584 6.62799 14.9405C6.54594 15.0225 6.49985 15.1338 6.49985 15.2498C6.49985 15.3659 6.54594 15.4772 6.62799 15.5592C6.71004 15.6413 6.82132 15.6874 6.93736 15.6874H14.8126C14.9286 15.6874 15.0399 15.6413 15.1219 15.5592C15.204 15.4772 15.2501 15.3659 15.2501 15.2498C15.2501 15.1338 15.204 15.0225 15.1219 14.9405C15.0399 14.8584 14.9286 14.8123 14.8126 14.8123H6.93736ZM4.7498 12.1873V13.0623H5.62482V12.1873H4.7498ZM4.7498 14.8123V15.6874H5.62482V14.8123H4.7498ZM9.12491 7.81216L7.37399 6.93713L6.93736 7.37465L9.12491 9.99971L13.0625 5.18709L12.625 4.74958L9.12491 7.81216Z" />
<path d="M3.87478 2.12451H14.375L17.0001 4.74958V16.9999C17.0001 17.232 16.9079 17.4545 16.7438 17.6186C16.5797 17.7827 16.3572 17.8749 16.1251 17.8749H3.87478C3.64271 17.8749 3.42014 17.7827 3.25604 17.6186C3.09195 17.4545 2.99976 17.232 2.99976 16.9999V2.99953C2.99976 2.76746 3.09195 2.5449 3.25604 2.3808C3.42014 2.2167 3.64271 2.12451 3.87478 2.12451ZM13.9375 2.99953V5.18709H16.1251L13.9375 2.99953ZM6.93736 12.1873C6.82132 12.1873 6.71004 12.2334 6.62799 12.3154C6.54594 12.3975 6.49985 12.5087 6.49985 12.6248C6.49985 12.7408 6.54594 12.8521 6.62799 12.9341C6.71004 13.0162 6.82132 13.0623 6.93736 13.0623H14.8126C14.9286 13.0623 15.0399 13.0162 15.1219 12.9341C15.204 12.8521 15.2501 12.7408 15.2501 12.6248C15.2501 12.5087 15.204 12.3975 15.1219 12.3154C15.0399 12.2334 14.9286 12.1873 14.8126 12.1873H6.93736ZM6.93736 14.8123C6.82132 14.8123 6.71004 14.8584 6.62799 14.9405C6.54594 15.0225 6.49985 15.1338 6.49985 15.2498C6.49985 15.3659 6.54594 15.4772 6.62799 15.5592C6.71004 15.6413 6.82132 15.6874 6.93736 15.6874H14.8126C14.9286 15.6874 15.0399 15.6413 15.1219 15.5592C15.204 15.4772 15.2501 15.3659 15.2501 15.2498C15.2501 15.1338 15.204 15.0225 15.1219 14.9405C15.0399 14.8584 14.9286 14.8123 14.8126 14.8123H6.93736ZM4.7498 12.1873V13.0623H5.62482V12.1873H4.7498ZM4.7498 14.8123V15.6874H5.62482V14.8123H4.7498ZM9.12491 7.81216L7.37399 6.93713L6.93736 7.37465L9.12491 9.99971L13.0625 5.18709L12.625 4.74958L9.12491 7.81216Z"/>
</g>
</g>
</svg>
