<svg width="16" height="16" viewBox="0 0 16 16"  xmlns="http://www.w3.org/2000/svg">
<g id="Group 427320492">
<g id="Union">
<path fill-rule="evenodd" clip-rule="evenodd" d="M10.2806 4.42703H5.26594C4.72866 4.42703 4.30225 4.00062 4.30225 3.47186V1.44213H6.22111C6.32345 0.700169 6.96307 0.0605469 7.71356 0.0605469C8.56639 0.0605469 9.21454 0.700169 9.31688 1.44213H11.2357V3.47186C11.2357 4.00062 10.8093 4.42703 10.2806 4.42703ZM12.3018 9.44167C13.1546 9.44167 14.0074 9.86808 14.5362 10.5077C14.8603 11.0365 15.1843 11.6761 15.082 12.3157C15.082 13.0577 14.8688 13.7058 14.4424 14.2346C13.9136 14.8742 13.0608 15.3006 12.208 15.3006C10.707 15.3006 9.42775 14.1322 9.32541 12.5289V12.4266V12.4266C9.32541 12.111 9.32541 11.7955 9.42775 11.4714C9.74329 10.7209 10.2806 10.0898 10.9202 9.76574C11.2443 9.55253 11.449 9.44167 11.773 9.44167H12.3018ZM12.1994 13.5949L13.9051 11.8893C14.1098 11.6761 14.1098 11.4629 13.8966 11.2497C13.6834 11.0365 13.4702 11.0365 13.2569 11.2497L11.8754 12.6312L11.6622 12.418L11.1334 11.8893C10.9202 11.6761 10.707 11.6761 10.4938 11.8893C10.2806 12.1025 10.2806 12.3157 10.4938 12.5289L11.5598 13.5949C11.773 13.8082 11.9862 13.8082 12.1994 13.5949ZM4.09679 12.5284H8.46327C8.56561 14.2341 9.74252 15.6242 11.2435 15.9397H2.81755C1.75151 15.9397 0.898682 15.0869 0.898682 14.0209V3.36052C0.898682 2.29448 1.75151 1.44165 2.81755 1.44165H3.3463V3.46286C3.3463 4.52889 4.19913 5.38172 5.26517 5.39025H10.2713C11.3373 5.39025 12.1901 4.53742 12.1901 3.47138V1.44165H12.5142C13.5802 1.44165 14.4331 2.29448 14.4331 3.36052V9.34737C13.802 8.92949 13.0515 8.60541 12.1987 8.60541C11.9855 8.60541 11.6699 8.60541 11.3458 8.70775H4.09679C3.78124 8.70775 3.56804 8.92096 3.56804 9.23651C3.56804 9.55205 3.77272 9.76526 4.09679 9.76526H9.52931C9.1029 10.1917 8.78735 10.8313 8.57414 11.4709H4.09679C3.78124 11.4709 3.56804 11.6756 3.56804 11.9997C3.56804 12.3152 3.77272 12.5284 4.09679 12.5284Z" />
<path fill-rule="evenodd" clip-rule="evenodd" d="M10.2806 4.42703H5.26594C4.72866 4.42703 4.30225 4.00062 4.30225 3.47186V1.44213H6.22111C6.32345 0.700169 6.96307 0.0605469 7.71356 0.0605469C8.56639 0.0605469 9.21454 0.700169 9.31688 1.44213H11.2357V3.47186C11.2357 4.00062 10.8093 4.42703 10.2806 4.42703ZM12.3018 9.44167C13.1546 9.44167 14.0074 9.86808 14.5362 10.5077C14.8603 11.0365 15.1843 11.6761 15.082 12.3157C15.082 13.0577 14.8688 13.7058 14.4424 14.2346C13.9136 14.8742 13.0608 15.3006 12.208 15.3006C10.707 15.3006 9.42775 14.1322 9.32541 12.5289V12.4266V12.4266C9.32541 12.111 9.32541 11.7955 9.42775 11.4714C9.74329 10.7209 10.2806 10.0898 10.9202 9.76574C11.2443 9.55253 11.449 9.44167 11.773 9.44167H12.3018ZM12.1994 13.5949L13.9051 11.8893C14.1098 11.6761 14.1098 11.4629 13.8966 11.2497C13.6834 11.0365 13.4702 11.0365 13.2569 11.2497L11.8754 12.6312L11.6622 12.418L11.1334 11.8893C10.9202 11.6761 10.707 11.6761 10.4938 11.8893C10.2806 12.1025 10.2806 12.3157 10.4938 12.5289L11.5598 13.5949C11.773 13.8082 11.9862 13.8082 12.1994 13.5949ZM4.09679 12.5284H8.46327C8.56561 14.2341 9.74252 15.6242 11.2435 15.9397H2.81755C1.75151 15.9397 0.898682 15.0869 0.898682 14.0209V3.36052C0.898682 2.29448 1.75151 1.44165 2.81755 1.44165H3.3463V3.46286C3.3463 4.52889 4.19913 5.38172 5.26517 5.39025H10.2713C11.3373 5.39025 12.1901 4.53742 12.1901 3.47138V1.44165H12.5142C13.5802 1.44165 14.4331 2.29448 14.4331 3.36052V9.34737C13.802 8.92949 13.0515 8.60541 12.1987 8.60541C11.9855 8.60541 11.6699 8.60541 11.3458 8.70775H4.09679C3.78124 8.70775 3.56804 8.92096 3.56804 9.23651C3.56804 9.55205 3.77272 9.76526 4.09679 9.76526H9.52931C9.1029 10.1917 8.78735 10.8313 8.57414 11.4709H4.09679C3.78124 11.4709 3.56804 11.6756 3.56804 11.9997C3.56804 12.3152 3.77272 12.5284 4.09679 12.5284Z" />
</g>
</g>
<defs>
<linearGradient id="paint0_linear_74_265" x1="11.7725" y1="3.52719" x2="1.48705" y2="12.0556" gradientUnits="userSpaceOnUse">
<stop stop-color="#1C62FB"/>
<stop offset="1" stop-color="#3796FE"/>
</linearGradient>
</defs>
</svg>
