<svg width="22" height="22" viewBox="0 0 22 22"  xmlns="http://www.w3.org/2000/svg">
<g id="Frame">
<path id="Vector" d="M14.747 9.84067C14.4515 9.84067 14.1731 9.75376 13.9645 9.57997C13.7559 9.40617 13.6342 9.1627 13.6342 8.91924C13.6342 7.68432 12.434 6.69321 10.9905 6.69321C9.52969 6.69321 8.34682 7.68467 8.34682 8.91924C8.34682 9.26721 8.13819 9.56274 7.77298 9.73653C7.40778 9.91034 7.00775 9.91034 6.65978 9.73653C6.31182 9.56272 6.08594 9.26684 6.08594 8.91924C6.08594 6.65838 8.27713 4.84961 10.9557 4.84961C13.6342 4.84961 15.8426 6.69321 15.8426 8.93684C15.8602 9.42303 15.3556 9.84069 14.747 9.84069V9.84067Z"/>
<path id="Vector_2" d="M18.1702 8.93726C17.8746 8.93726 17.5963 8.85036 17.3877 8.67655C17.1791 8.48516 17.0573 8.2593 17.0573 8.01582C17.0573 6.18982 15.9093 4.52003 14.0312 3.61582C12.1532 2.7116 9.83986 2.71163 7.96144 3.61582C6.08302 4.52001 4.93535 6.18982 4.93535 8.01582C4.93535 8.52035 4.43081 8.93762 3.82213 8.93762C3.21346 8.93762 2.70894 8.52035 2.70894 8.01582C2.70894 5.52872 4.29148 3.23303 6.86548 1.99847C9.42225 0.76353 12.6049 0.76353 15.1613 1.99847C17.7177 3.23342 19.283 5.51149 19.283 7.99859C19.2834 8.51999 18.7788 8.93724 18.1702 8.93724V8.93726ZM18.5354 12.2417H3.42212C2.83067 12.2417 2.34375 12.8155 2.34375 13.5287V19.2332C2.34375 19.9288 2.83067 20.5202 3.42212 20.5202H18.5354C19.1268 20.5202 19.6138 19.9464 19.6138 19.2332V13.5287C19.6138 12.8155 19.1268 12.2417 18.5354 12.2417ZM6.08302 16.9896C5.89159 17.1634 5.64813 17.2679 5.42227 17.2679C4.90052 17.2679 4.46563 16.8331 4.46563 16.3113C4.46563 15.7895 4.90052 15.3547 5.42227 15.3547C5.94402 15.3547 6.3789 15.7895 6.3789 16.3113C6.36131 16.5548 6.25681 16.7982 6.08302 16.9896ZM8.97013 16.9896C8.77875 17.1634 8.53529 17.2679 8.3094 17.2679C7.7704 17.2679 7.35277 16.8331 7.35277 16.3113C7.35277 15.7895 7.78763 15.3547 8.3094 15.3547C8.8484 15.3547 9.26604 15.7895 9.26604 16.3113C9.24844 16.5548 9.14394 16.7982 8.97013 16.9896ZM11.9093 16.9896C11.7179 17.1634 11.4745 17.2679 11.2486 17.2679C10.7096 17.2679 10.292 16.8331 10.292 16.3113C10.292 15.7895 10.7268 15.3547 11.2486 15.3547C11.7876 15.3547 12.2052 15.7895 12.2052 16.3113C12.2049 16.5548 12.1004 16.7982 11.9093 16.9896ZM9.71777 10.3112C9.71777 10.9895 10.2744 11.5285 10.9699 11.5285C11.6655 11.5285 12.2221 10.9895 12.2221 10.3112C12.2221 9.63282 11.6655 9.09382 10.9699 9.09382C10.2744 9.11105 9.71777 9.65041 9.71777 10.3112Z" />
</g>
<defs>
<linearGradient id="paint0_linear_26_246" x1="13.5562" y1="5.94495" x2="10.7507" y2="11.0029" gradientUnits="userSpaceOnUse">
<stop stop-color="#1C62FB"/>
<stop offset="1" stop-color="#3796FE"/>
</linearGradient>
<linearGradient id="paint1_linear_26_246" x1="15.5661" y1="5.31802" x2="2.98608" y2="15.6743" gradientUnits="userSpaceOnUse">
<stop stop-color="#1C62FB"/>
<stop offset="1" stop-color="#3796FE"/>
</linearGradient>
</defs>
</svg>
