<svg width="20" height="20" viewBox="0 0 20 20"  xmlns="http://www.w3.org/2000/svg">
<g id="Frame">
<path id="Vector" d="M1.94141 1.35931H5.51758C5.92773 1.34954 6.26758 1.74993 6.27539 2.25188V15.2128H6.26562V17.2402H6.27539V17.7128C6.27539 18.2245 5.93555 18.6406 5.51758 18.6406H1.96875C1.55859 18.6503 1.21875 18.2499 1.21094 17.748V2.28509C1.20508 1.78313 1.53125 1.36907 1.94141 1.35931ZM2.29102 17.0917H5.00977V15.8456H2.29102V17.0917ZM2.70508 4.33392H4.7207C5.05664 4.33392 5.32812 4.00188 5.32812 3.58978C5.32812 3.17962 5.05664 2.84563 4.7207 2.84563H2.70508C2.36914 2.84563 2.09766 3.17767 2.09766 3.58978C2.09766 3.99993 2.36914 4.33392 2.70508 4.33392ZM8.19531 1.35931H11.7734C12.1836 1.34954 12.5234 1.74993 12.5312 2.25188V15.2128H12.5215V17.2402H12.5312V17.7128C12.5312 18.2245 12.1914 18.6406 11.7734 18.6406H8.22266C7.8125 18.6503 7.47266 18.2499 7.46484 17.748V2.28509C7.45898 1.78313 7.78516 1.36907 8.19531 1.35931ZM8.54492 17.0917H11.2637V15.8456H8.54492V17.0917ZM8.95898 4.33392H10.9746C11.3105 4.33392 11.582 4.00188 11.582 3.58978C11.582 3.17962 11.3105 2.84563 10.9746 2.84563H8.95898C8.62305 2.84563 8.35156 3.17767 8.35156 3.58978C8.35156 3.99993 8.625 4.33392 8.95898 4.33392ZM13.7227 2.28509C13.7227 1.77337 14.0625 1.35931 14.4805 1.35931H18.0312C18.4414 1.34954 18.7812 1.74798 18.7891 2.25188V17.7128C18.7891 18.2245 18.4512 18.6406 18.0312 18.6406H14.4805C14.0703 18.6503 13.7305 18.2499 13.7227 17.748V17.0898H13.7168V15.8437H13.7227V2.28509ZM15.0703 17.0898H17.5215V15.8437H15.0684V17.0898H15.0703ZM15.2344 4.33196H17.25C17.5859 4.33196 17.8574 3.99993 17.8574 3.58782C17.8574 3.17767 17.5859 2.84368 17.25 2.84368H15.2344C14.8984 2.84368 14.627 3.17571 14.627 3.58782C14.627 3.99798 14.9004 4.33196 15.2344 4.33196Z" />
</g>
<defs>
<linearGradient id="paint0_linear_26_278" x1="5.33075" y1="5.13194" x2="16.702" y2="15.8546" gradientUnits="userSpaceOnUse">
<stop stop-color="#1C62FB"/>
<stop offset="1" stop-color="#3796FE"/>
</linearGradient>
</defs>
</svg>
