<svg width="20" height="20" viewBox="0 0 20 20"  xmlns="http://www.w3.org/2000/svg">
<g id="Frame">
<path id="Vector" d="M16.1726 17.9999H2.77524C2.33607 17.9999 2.00024 17.6832 2.00024 17.2941V5.11915C2.00024 4.72915 2.36191 4.41249 2.77607 4.41249H4.06939V5.11832C4.06939 5.89748 4.76772 6.53081 5.62105 6.53081C6.47438 6.53081 7.1727 5.89748 7.1727 5.11832V4.41249H7.9477V5.11832C7.9477 5.89748 8.64686 6.53081 9.50019 6.53081C10.3535 6.53081 11.0518 5.89748 11.0518 5.11832V4.41249H11.8277V5.11832C11.8277 5.89748 12.526 6.53081 13.3793 6.53081C14.2326 6.53081 14.931 5.89748 14.931 5.11832V4.41249H16.2243C16.6643 4.41249 17.0001 4.72915 17.0001 5.11832V17.2932C16.9721 17.4917 16.8725 17.673 16.7201 17.8032C16.5677 17.9333 16.373 18.0033 16.1726 17.9999ZM14.1293 8.40579H4.84522C4.43106 8.40579 4.06939 8.72246 4.06939 9.11162C4.06939 9.50162 4.43106 9.81828 4.84439 9.81828H14.1035C14.5435 9.81828 14.8793 9.50162 14.8793 9.11162C14.8793 8.72246 14.5435 8.40579 14.1293 8.40579ZM14.1293 11.4499H4.84522C4.43106 11.4499 4.06939 11.7666 4.06939 12.1558C4.06939 12.5458 4.43106 12.8616 4.84439 12.8616H14.1035C14.5435 12.8616 14.8793 12.5449 14.8793 12.1558C14.8793 11.7658 14.5435 11.4499 14.1293 11.4499ZM14.2585 14.4932H4.71689C4.35439 14.4932 4.07023 14.7616 4.07023 15.0782C4.07023 15.3949 4.35439 15.6616 4.71689 15.6616H14.2335C14.5701 15.6616 14.8801 15.3949 14.8801 15.0782C14.8801 14.7616 14.596 14.4932 14.2593 14.4932H14.2585ZM13.3535 5.82498C12.9143 5.82498 12.5785 5.50831 12.5785 5.11832V3.70583C12.5785 3.31666 12.9143 3 13.3535 3C13.7935 3 14.1293 3.31666 14.1293 3.70583V5.11832C14.1293 5.50831 13.7677 5.82498 13.3543 5.82498H13.3535ZM9.47435 5.82498C9.06019 5.82498 8.69853 5.50831 8.69853 5.11832V3.70583C8.69853 3.31666 9.06019 3 9.47435 3C9.88852 3 10.2502 3.31666 10.2502 3.70583V5.11832C10.2502 5.50831 9.91435 5.82498 9.47435 5.82498ZM5.62105 5.82498C5.20689 5.82498 4.84522 5.50831 4.84522 5.11832V3.70583C4.84522 3.31666 5.20689 3 5.62022 3C6.03438 3 6.39688 3.31666 6.39688 3.70583V5.11832C6.39688 5.50831 6.06021 5.82498 5.62105 5.82498Z" />
</g>
</svg>
