<svg width="18" height="18" viewBox="0 0 18 18"  xmlns="http://www.w3.org/2000/svg">
<g id="Frame">
<path id="Subtract" fill-rule="evenodd" clip-rule="evenodd" d="M13.7575 17.615H4.11467C2.70038 17.615 1.54324 16.4578 1.54324 15.0435V5.36853C1.5383 5.0293 1.60115 4.69251 1.7281 4.37789C1.85505 4.06328 2.04354 3.77718 2.28252 3.53638L4.82181 0.997098C5.3361 0.514955 5.97895 0.257812 6.65395 0.257812H13.7575C15.1718 0.257812 16.329 1.41496 16.329 2.82924V15.0435C16.329 16.4578 15.1718 17.615 13.7575 17.615ZM4.84358 7.99955L7.67215 5.93726C7.80996 5.83713 7.98187 5.79578 8.15013 5.82229C8.3184 5.84881 8.46926 5.94103 8.56958 6.07869C8.61956 6.14701 8.65556 6.22452 8.67551 6.30679C8.69546 6.38905 8.69896 6.47444 8.68582 6.55807C8.67268 6.64169 8.64315 6.72189 8.59893 6.79407C8.55472 6.86626 8.49668 6.92899 8.42815 6.97869L7.24092 7.84375H12.4699C12.6403 7.84378 12.8038 7.91152 12.9244 8.03208C13.0449 8.15263 13.1126 8.31613 13.1126 8.48661C13.1126 8.65709 13.0449 8.82058 12.9244 8.94114C12.8038 9.0617 12.6403 9.12944 12.4699 9.12946H5.42509C5.32829 9.16175 5.22427 9.17083 5.12161 9.15465C4.95334 9.12814 4.80248 9.03592 4.70215 8.89826C4.65217 8.82994 4.61617 8.75243 4.59623 8.67016C4.57628 8.5879 4.57278 8.5025 4.58592 8.41888C4.59906 8.33526 4.62859 8.25506 4.6728 8.18287C4.71702 8.11069 4.77506 8.04795 4.84358 7.99826V7.99955ZM5.27166 11.8287H10.5006L9.31624 12.6916C9.24771 12.7413 9.18968 12.8041 9.14546 12.8762C9.10124 12.9484 9.07171 13.0286 9.05857 13.1122C9.04543 13.1959 9.04894 13.2813 9.06888 13.3635C9.08883 13.4458 9.12483 13.5233 9.17481 13.5916C9.27514 13.7293 9.426 13.8215 9.59426 13.848C9.76253 13.8745 9.93444 13.8332 10.0722 13.733L12.9008 11.6708V11.672C12.9693 11.6224 13.0274 11.5596 13.0716 11.4874C13.1158 11.4153 13.1453 11.335 13.1585 11.2514C13.1716 11.1678 13.1681 11.0824 13.1482 11.0001C13.1282 10.9179 13.0922 10.8404 13.0422 10.772C12.9419 10.6344 12.7911 10.5422 12.6228 10.5157C12.5179 10.4991 12.4116 10.509 12.313 10.543H5.27166C5.10118 10.543 4.93769 10.6107 4.81716 10.7313C4.69662 10.8519 4.62891 11.0153 4.62891 11.1858C4.62891 11.3563 4.69662 11.5198 4.81716 11.6404C4.93769 11.7609 5.10118 11.8287 5.27166 11.8287Z" />
</g>
</svg>
