<svg width="16" height="16" viewBox="0 0 16 16" xmlns="http://www.w3.org/2000/svg">
<g id="Frame" clip-path="url(#clip0_74_170)">
<path id="Subtract" fill-rule="evenodd" clip-rule="evenodd" d="M13.4801 2.51992C14.1916 3.23147 14.7503 4.06022 15.1407 4.98316C15.545 5.93902 15.75 6.95403 15.75 8C15.75 9.04595 15.545 10.061 15.1407 11.0168C14.7503 11.9398 14.1916 12.7685 13.4801 13.4801C12.7685 14.1916 11.9398 14.7503 11.0168 15.1407C10.061 15.545 9.04597 15.75 8 15.75C6.95403 15.75 5.93902 15.545 4.98316 15.1407C4.06022 14.7503 3.23147 14.1916 2.51992 13.4801C1.80837 12.7685 1.24967 11.9398 0.859297 11.0168C0.455 10.061 0.25 9.04595 0.25 8C0.25 6.95403 0.455 5.93902 0.859297 4.98316C1.24967 4.06022 1.80837 3.23147 2.51992 2.51992C3.23147 1.80837 4.06022 1.24967 4.98316 0.859297C5.93902 0.455 6.95403 0.25 8 0.25C9.04597 0.25 10.061 0.455 11.0168 0.859297C11.9398 1.24967 12.7685 1.80837 13.4801 2.51992ZM5.82378 5.72061H9.24612C10.9003 5.72061 12.2461 7.06639 12.2461 8.72061C12.2461 10.3748 10.9003 11.7206 9.24612 11.7206H5.12113C4.77595 11.7206 4.49613 11.4408 4.49613 11.0956C4.49613 10.7504 4.77595 10.4706 5.12113 10.4706H9.24612C10.2111 10.4706 10.9961 9.68556 10.9961 8.72061C10.9961 7.75565 10.2111 6.97061 9.24612 6.97061H5.82759L6.19814 7.34115C6.44222 7.58523 6.44222 7.98097 6.19814 8.22504C6.07611 8.34709 5.91616 8.40811 5.7562 8.40811C5.59625 8.40811 5.4363 8.34707 5.31427 8.22504L3.98088 6.89167C3.83453 6.74532 3.75391 6.55071 3.75391 6.3437C3.75391 6.1367 3.83452 5.94211 3.98088 5.79573L5.31425 4.46236C5.55834 4.21828 5.95409 4.21828 6.19816 4.46236C6.44222 4.70643 6.44222 5.10215 6.19816 5.34623L5.82378 5.72061Z" />
</g>
<defs>
<clipPath id="clip0_74_170">
<rect width="16" height="16" />
</clipPath>
</defs>
</svg>
